<svg
  width="1440"
  height="980"
  viewBox="0 0 1440 980"
  fill="none"
  xmlns="http://www.w3.org/2000/svg"
>
  <mask
    id="mask0_4300_36103"
    style="mask-type: alpha"
    maskUnits="userSpaceOnUse"
    x="0"
    y="0"
    width="1440"
    height="980"
  >
    <rect width="1440" height="980" fill="black" />
  </mask>
  <g mask="url(#mask0_4300_36103)">
    <g opacity="0.5">
      <path
        fill-rule="evenodd"
        clip-rule="evenodd"
        d="M997.07 708.864C996.653 706.572 995.403 706.051 995.507 710.114C994.049 709.906 989.569 711.677 995.507 711.677C995.195 712.719 997.07 717.824 997.07 711.677C998.737 711.885 1002.7 709.906 997.07 710.114C997.174 709.697 997.07 709.281 997.07 708.864ZM1017.91 265.034C1017.59 262.846 1016.24 262.117 1016.34 266.284C1015.3 265.972 1010.3 267.847 1016.34 267.847C1016.03 268.889 1017.91 273.994 1017.91 267.847C1019.57 268.055 1023.53 266.076 1017.91 266.284C1018.01 265.867 1017.91 265.451 1017.91 265.034ZM1346.09 314.001C1345.78 311.813 1344.42 311.084 1344.53 315.251C1343.49 314.939 1338.49 316.814 1344.53 316.814C1344.22 317.856 1346.09 322.961 1346.09 316.814C1347.76 317.022 1351.72 315.043 1346.09 315.251C1346.2 314.834 1346.09 314.418 1346.09 314.001ZM543.863 -65.234C543.447 -67.526 542.196 -68.047 542.301 -63.9837C540.842 -64.1921 536.362 -62.421 542.301 -62.421C541.988 -61.3791 543.759 -56.274 543.863 -62.421C545.53 -62.2126 549.489 -64.1921 543.863 -63.9837C543.968 -64.4005 543.968 -64.8172 543.863 -65.234ZM518.859 104.588C518.442 102.296 517.192 101.775 517.296 105.839C515.838 105.63 511.358 107.401 517.296 107.401C516.984 108.443 518.755 113.548 518.859 107.401C520.526 107.61 524.485 105.63 518.859 105.839C518.963 105.422 518.963 105.005 518.859 104.588ZM892.885 571.339C892.468 569.047 891.218 568.526 891.322 572.589C889.863 572.381 885.175 574.152 891.322 574.152C891.113 575.611 892.885 580.195 892.885 574.152C894.864 574.256 898.198 572.589 892.885 572.589C892.989 572.172 892.989 571.756 892.885 571.339Z"
        fill="#F8FAFB"
      />
      <path
        fill-rule="evenodd"
        clip-rule="evenodd"
        d="M1393.29 -56.3782C1393.08 -56.3782 1393.08 -56.3782 1391.93 -56.4824C1392.14 -57.6285 1390.68 -60.754 1390.68 -56.4824C1389.54 -56.5866 1386.31 -55.2322 1390.68 -55.2322C1390.58 -54.0862 1391.93 -50.8564 1391.83 -55.2322C1392.14 -55.128 1395.79 -55.8573 1393.29 -56.3782ZM1170.33 435.377C1170.12 435.377 1170.12 435.377 1168.98 435.273C1169.19 434.127 1167.73 431.001 1167.73 435.273C1166.58 435.169 1163.35 436.523 1167.73 436.523C1167.62 437.669 1168.98 440.899 1168.87 436.523C1169.19 436.627 1172.83 435.898 1170.33 435.377ZM960.919 -30.3319C960.71 -30.3319 960.71 -30.3319 959.564 -30.4361C959.773 -31.5821 958.314 -34.7077 958.314 -30.4361C957.168 -30.5402 954.042 -29.1858 958.314 -29.1858C958.21 -28.0398 959.564 -24.9142 959.564 -29.1858C959.773 -29.0816 963.419 -29.8109 960.919 -30.3319ZM1276.6 -41.7923C1276.39 -41.7923 1276.39 -41.7923 1275.25 -41.8965C1275.45 -43.0425 1274 -46.1681 1274 -41.8965C1272.85 -42.0006 1269.62 -40.6462 1274 -40.6462C1273.89 -39.5002 1275.25 -36.2704 1275.14 -40.6462C1275.45 -40.542 1279.1 -41.2713 1276.6 -41.7923ZM1326.61 438.503C1326.4 438.503 1326.4 438.503 1325.26 438.398C1325.46 437.252 1324 434.127 1324 438.398C1322.86 438.294 1319.63 439.649 1324 439.649C1323.9 440.795 1325.26 444.024 1325.15 439.649C1325.46 439.753 1329.11 439.023 1326.61 438.503Z"
        fill="#71CEFC"
      />
      <path
        fill-rule="evenodd"
        clip-rule="evenodd"
        d="M12.5153 376.512C12.0986 374.22 10.8483 373.699 10.9525 377.762C10.0149 377.45 4.80559 379.221 10.9525 379.325C10.64 380.367 12.4111 385.472 12.5153 379.325C14.1823 379.534 18.1413 377.554 12.5153 377.762C12.6195 377.346 12.6195 376.929 12.5153 376.512ZM1379.43 571.339C1379.12 569.151 1377.76 568.422 1377.87 572.589C1376.82 572.277 1371.82 574.152 1377.87 574.152C1377.55 575.194 1379.43 580.299 1379.43 574.152C1381.09 574.36 1385.05 572.381 1379.43 572.589C1379.53 572.172 1379.43 571.756 1379.43 571.339ZM17.933 779.189C17.412 776.272 15.8493 775.647 16.0576 780.752C14.2865 780.543 8.3479 782.627 16.0576 782.731C15.8493 784.607 18.0371 790.337 18.0371 782.731C18.2455 782.94 24.2883 782.002 20.8501 780.96C19.5999 780.752 20.8501 780.752 17.933 780.648C18.0371 780.231 18.0371 779.71 17.933 779.189ZM1326.29 -50.648C1325.98 -52.8359 1324.63 -53.5652 1324.73 -49.3978C1323.69 -49.7103 1318.69 -47.835 1324.73 -47.835C1324.42 -46.7931 1326.29 -41.688 1326.29 -47.835C1327.96 -47.6266 1331.92 -49.6061 1326.29 -49.3978C1326.4 -49.8145 1326.29 -50.2313 1326.29 -50.648ZM312.569 717.199C312.153 714.907 310.902 714.386 311.007 718.449C309.548 718.24 305.068 720.012 311.007 720.012C310.694 721.053 312.465 726.159 312.569 720.012C314.236 720.22 318.195 718.24 312.569 718.449C312.674 718.032 312.674 717.615 312.569 717.199Z"
        fill="#F8FAFB"
      />
    </g>
    <path
      d="M251.19 332.916C249.6 331.325 250.969 329.603 251.853 328.94C252.295 328.719 253.444 328.542 254.505 329.603C255.565 330.663 255.388 331.811 255.167 332.253C254.504 333.137 252.781 334.506 251.19 332.916Z"
      fill="#82C2F4"
    />
    <path
      fill-rule="evenodd"
      clip-rule="evenodd"
      d="M178.494 302.261C180.595 302.148 182.201 302.401 182.252 302.896C182.303 303.391 180.783 303.967 178.704 304.285C178.817 306.385 178.564 307.99 178.069 308.041C177.574 308.093 176.998 306.573 176.68 304.494C174.581 304.607 172.976 304.355 172.925 303.86C172.874 303.365 174.393 302.789 176.471 302.471C176.357 300.371 176.61 298.766 177.105 298.714C177.6 298.663 178.176 300.183 178.494 302.261Z"
      fill="#82C2F4"
    />
    <path
      fill-rule="evenodd"
      clip-rule="evenodd"
      d="M1427.33 849.335C1429.43 849.438 1431 849.855 1431 850.352C1431 850.85 1429.43 851.266 1427.33 851.37C1427.23 853.47 1426.81 855.041 1426.31 855.041C1425.82 855.041 1425.4 853.47 1425.3 851.37C1423.2 851.266 1421.63 850.85 1421.63 850.352C1421.63 849.855 1423.2 849.438 1425.3 849.335C1425.4 847.235 1425.82 845.664 1426.31 845.664C1426.81 845.664 1427.23 847.235 1427.33 849.335Z"
      fill="#82C2F4"
    />
    <path
      d="M1406.57 761.406C1405.32 760.155 1406.4 758.801 1407.09 758.28C1407.44 758.107 1408.34 757.968 1409.18 758.801C1410.01 759.635 1409.87 760.538 1409.7 760.885C1409.18 761.579 1407.82 762.656 1406.57 761.406Z"
      fill="white"
    />
    <path
      fill-rule="evenodd"
      clip-rule="evenodd"
      d="M1340.63 877.691C1342.27 877.772 1343.49 878.095 1343.49 878.482C1343.49 878.869 1342.27 879.193 1340.63 879.274C1340.55 880.907 1340.23 882.129 1339.84 882.129C1339.45 882.129 1339.13 880.907 1339.05 879.274C1337.42 879.193 1336.2 878.87 1336.2 878.482C1336.2 878.095 1337.42 877.771 1339.05 877.691C1339.13 876.058 1339.45 874.836 1339.84 874.836C1340.23 874.836 1340.55 876.058 1340.63 877.691Z"
      fill="#82C2F4"
    />
    <path
      fill-rule="evenodd"
      clip-rule="evenodd"
      d="M1159.92 849.693C1162.02 849.58 1163.63 849.832 1163.68 850.327C1163.73 850.823 1162.21 851.398 1160.13 851.717C1160.24 853.817 1159.99 855.422 1159.5 855.473C1159 855.524 1158.43 854.004 1158.11 851.926C1156.01 852.039 1154.4 851.787 1154.35 851.292C1154.3 850.797 1155.82 850.221 1157.9 849.902C1157.79 847.803 1158.04 846.197 1158.53 846.146C1159.03 846.095 1159.6 847.615 1159.92 849.693Z"
      fill="#82C2F4"
    />
    <g opacity="0.2" filter="url(#filter0_f_4300_36103)">
      <circle
        cx="1239"
        cy="416"
        r="136"
        fill="url(#paint0_angular_4300_36103)"
      />
    </g>
    <g opacity="0.7">
      <path
        d="M1126.04 584.177C1192.97 584.177 1247.22 529.921 1247.22 462.994C1247.22 396.067 1192.97 341.812 1126.04 341.812C1059.11 341.812 1004.86 396.067 1004.86 462.994C1004.86 529.921 1059.11 584.177 1126.04 584.177Z"
        fill="url(#paint1_radial_4300_36103)"
      />
      <g opacity="0.1">
        <path
          fill-rule="evenodd"
          clip-rule="evenodd"
          d="M1149.43 344.096C1133.75 340.997 1117.62 341.037 1101.95 344.212C1101.9 344.913 1102.04 345.614 1102.35 346.246C1103.46 348.745 1105.93 350.421 1108.52 351.308C1111.16 352.055 1113.85 352.573 1116.58 352.857C1120.32 353.466 1123.98 354.466 1127.51 355.841C1130.48 356.987 1133.87 359.424 1133.19 362.488C1132.85 364.047 1131.53 365.139 1130.28 366.18L1130.22 366.233L1118.57 375.54C1117.17 376.66 1115.65 378.031 1115.65 379.823C1115.65 382.627 1119.23 383.881 1122.05 383.702C1125.29 383.5 1128.43 382.461 1131.57 381.426C1135.52 380.118 1139.46 378.817 1143.55 379.222C1145.49 379.411 1147.59 380.118 1148.47 381.91C1149.41 383.765 1148.62 385.963 1147.92 387.943C1147.89 388.038 1147.85 388.132 1147.82 388.226C1146.9 390.792 1146.27 393.45 1145.94 396.154C1145.14 402.622 1149.31 403.59 1154.27 401.171C1159.06 398.833 1164.48 399.872 1168.6 403.043C1171.64 405.399 1175.25 407.272 1179.17 407.325C1183.1 407.379 1186.26 404.853 1188.89 402.219C1192.26 398.824 1195.66 396.056 1200.59 395.518C1205.52 395.013 1210.5 395.881 1214.97 398.026C1215.93 398.504 1216.83 399.088 1217.72 399.67L1217.72 399.67C1219.1 400.564 1220.47 401.455 1222.04 401.959C1223.37 402.346 1224.77 402.427 1226.14 402.194C1227.51 401.961 1228.81 401.421 1229.93 400.615C1221.22 386.081 1209.56 373.539 1195.69 363.802C1181.82 354.065 1166.06 347.352 1149.43 344.096ZM1095.31 378.183C1094.69 377.489 1093.89 376.986 1092.99 376.732C1091.14 376.1 1089.18 375.969 1087.22 375.837C1084.98 375.687 1082.75 375.538 1080.7 374.645C1077.75 373.372 1076.27 369.744 1078.57 367.057C1082.8 362.192 1094.82 364.235 1100.07 365.265C1102.61 365.636 1105.06 366.481 1107.29 367.755C1109.44 369.135 1111.11 371.464 1111.11 374.026C1111.08 376.786 1109.12 379.115 1107.33 381.193L1102.49 386.676C1101.12 388.226 1099.71 390.376 1100.61 392.167C1101.3 393.556 1103.07 394.031 1104.63 394.031C1108.96 394.073 1112.79 391.796 1116.58 389.543L1116.58 389.543C1117.58 388.951 1118.57 388.36 1119.57 387.814C1124.37 385.189 1130.88 383.702 1134.89 387.41C1137.67 389.983 1138.03 393.816 1138.4 397.727V397.727C1138.64 400.23 1138.88 402.765 1139.76 405.023C1140.17 406.233 1140.93 407.298 1141.93 408.087C1143.32 408.907 1144.93 409.282 1146.55 409.162C1148.14 409.162 1149.77 409.054 1151.41 408.946C1155.99 408.642 1160.59 408.337 1164.55 410.425C1166.37 411.373 1167.89 412.753 1169.41 414.132C1171.01 415.58 1172.61 417.027 1174.54 417.968C1177.15 419.221 1180.13 419.458 1182.91 418.631C1186.45 417.55 1189.12 414.91 1191.81 412.259L1191.81 412.258C1193.06 411.021 1194.32 409.782 1195.67 408.696C1198.89 406.152 1202.69 404.435 1206.73 403.696C1210.77 402.958 1214.93 403.219 1218.84 404.459C1221.01 405.1 1223.01 406.22 1224.68 407.737C1229.3 412.226 1228.7 420.647 1223.93 425.019C1219.16 429.39 1211.45 429.641 1205.89 426.353C1205.24 425.968 1204.59 425.536 1203.94 425.102L1203.94 425.101L1203.94 425.101C1201.53 423.495 1199.06 421.848 1196.36 422.349C1194.14 422.763 1192.58 424.474 1191.01 426.205C1190.17 427.132 1189.32 428.065 1188.36 428.808C1186.89 429.922 1185.13 430.607 1183.29 430.788C1181.45 430.968 1179.59 430.636 1177.93 429.829C1175.09 428.409 1173.2 425.808 1171.31 423.192C1169.79 421.088 1168.26 418.975 1166.22 417.458C1162.35 414.582 1157.33 414.263 1152.45 413.953C1151.55 413.896 1150.65 413.839 1149.77 413.767C1144.09 413.301 1137.61 411.33 1135.54 406.008C1135.19 405.101 1134.99 404.137 1134.8 403.174L1134.8 403.174L1134.8 403.174C1134.53 401.855 1134.25 400.539 1133.59 399.379C1131.63 395.912 1127.09 395.07 1123.13 394.9C1117.56 394.669 1111.99 395.05 1106.51 396.038C1106.18 396.096 1105.85 396.158 1105.52 396.219C1102.77 396.728 1099.92 397.254 1097.18 396.647C1094.12 395.966 1091.22 393.296 1091.5 390.17C1091.66 388.417 1092.73 386.96 1093.79 385.522L1093.79 385.522C1094.07 385.136 1094.35 384.752 1094.61 384.365C1095.86 382.528 1096.7 379.921 1095.31 378.183ZM1052.24 380.843C1053.24 380.431 1054.25 380.055 1055.28 379.724C1057.53 379.004 1059.83 378.5 1062.17 378.219C1064.54 377.941 1067.27 377.995 1068.88 379.786C1069.05 379.948 1069.17 380.157 1069.22 380.387C1069.23 380.549 1069.21 380.711 1069.15 380.865C1069.1 381.019 1069.02 381.161 1068.91 381.282C1068.43 381.958 1067.74 382.43 1067.06 382.899C1066.24 383.462 1065.43 384.02 1064.99 384.92C1064.82 385.206 1064.74 385.533 1064.75 385.863C1064.76 386.194 1064.86 386.515 1065.04 386.792C1065.29 387.053 1065.59 387.244 1065.94 387.347C1067.7 387.966 1069.6 387.833 1071.49 387.699C1073.44 387.561 1075.38 387.424 1077.2 388.1C1077.93 388.323 1078.55 388.829 1078.92 389.506C1079.5 390.877 1078.25 392.328 1076.96 393.09C1076.75 393.216 1076.53 393.339 1076.31 393.463C1075.2 394.086 1074.06 394.728 1073.61 395.894C1072.68 398.384 1075.74 400.472 1078.29 401.269C1080.84 402.066 1084.05 403.473 1083.82 406.16C1083.63 407.251 1083.08 408.251 1082.28 409.009C1080.29 411.213 1077.6 413.184 1074.64 412.96C1073.32 412.858 1072.11 412.339 1070.89 411.819L1070.89 411.819C1070.29 411.565 1069.7 411.311 1069.09 411.105C1067.24 410.478 1064.87 410.46 1063.65 412.001C1062.86 413.022 1062.83 414.354 1062.8 415.7C1062.77 416.918 1062.74 418.147 1062.15 419.168C1061.65 419.877 1060.97 420.44 1060.19 420.799C1059.4 421.158 1058.53 421.3 1057.67 421.211C1052.56 420.942 1048.89 415.415 1049.19 410.308C1049.5 405.202 1052.77 400.714 1056.58 397.3C1057.62 396.378 1058.79 395.312 1058.79 393.923C1058.77 392.275 1057.07 391.164 1055.47 390.734C1055.04 390.617 1054.59 390.525 1054.15 390.434C1052.95 390.188 1051.76 389.942 1050.81 389.211C1047.76 386.881 1049.04 382.196 1052.24 380.843ZM1085.46 415.657C1083.16 418.174 1080.32 420.405 1076.96 420.916C1075.55 421.098 1074.12 420.978 1072.76 420.562C1071.4 420.147 1070.15 419.446 1069.08 418.506C1068.81 418.264 1068.52 417.796 1068.23 417.315C1067.83 416.653 1067.41 415.969 1066.99 415.818C1065.59 415.316 1064.98 417.377 1064.78 418.327L1064.78 418.349L1064.78 418.35C1064.08 421.746 1063.37 425.214 1064.08 428.647C1064.8 432.087 1067.33 435.366 1070.78 435.814C1073.84 436.208 1076.74 434.327 1078.84 432.024C1079.86 430.906 1080.73 429.677 1081.59 428.452C1082.51 427.155 1083.43 425.861 1084.52 424.705C1086.79 422.29 1089.69 420.55 1092.89 419.679C1095.74 418.909 1099.33 419.052 1100.84 421.776C1102.35 424.499 1100.41 427.841 1098.25 430.08C1096.35 431.842 1094.56 433.711 1092.88 435.679C1091.31 437.704 1090.21 440.284 1090.58 442.846C1090.82 444.231 1091.46 445.516 1092.41 446.549C1093.37 447.582 1094.6 448.318 1095.96 448.669C1097.33 448.972 1098.77 448.908 1100.11 448.486C1101.45 448.063 1102.66 447.295 1103.62 446.259C1104.62 445.157 1105.31 443.815 1105.99 442.475C1106.74 441.005 1107.48 439.537 1108.65 438.394C1111.26 435.841 1115.52 435.536 1118.86 436.996C1122.19 438.456 1124.68 441.404 1126.4 444.62C1127.03 445.818 1127.58 447.068 1128.13 448.316C1129.17 450.68 1130.2 453.04 1131.82 455.039C1134.44 458.128 1138.08 460.183 1142.09 460.835C1146.07 461.466 1150.14 461.178 1154 459.993C1156.63 459.249 1159.3 458.094 1160.89 455.881C1162.85 453.086 1162.65 449.135 1161.06 446.089C1159.47 443.043 1156.76 440.741 1153.95 438.77C1145.24 432.642 1135.05 428.889 1124.71 426.327C1122.65 425.93 1120.65 425.252 1118.78 424.311C1117.84 423.834 1117.02 423.152 1116.38 422.316C1115.74 421.481 1115.3 420.512 1115.08 419.482C1114.75 417.159 1115.98 414.952 1117.18 412.782C1118.54 410.343 1119.88 407.95 1118.93 405.489C1118 403.088 1115.24 401.968 1112.7 401.529C1109 400.916 1105.21 401.173 1101.63 402.28C1098.05 403.387 1094.78 405.314 1092.07 407.908C1090.66 409.283 1089.43 410.82 1088.21 412.36L1088.21 412.36L1088.21 412.36L1088.21 412.36L1088.21 412.36L1088.21 412.36L1088.21 412.36L1088.21 412.36L1088.21 412.36C1087.32 413.478 1086.42 414.598 1085.46 415.657ZM1164.89 462.94C1161.36 468.745 1155.49 473.269 1148.77 474.326C1142.05 475.383 1134.69 472.534 1131.06 466.819C1130.25 465.269 1129.32 463.786 1128.28 462.384C1125.14 458.801 1119.52 458.711 1114.94 460.055C1106.82 462.438 1099.71 468.834 1097.53 477.022C1095.34 485.211 1098.77 494.85 1106.17 498.962C1112.44 502.465 1120.26 501.694 1127.21 499.813C1129.28 499.25 1131.34 498.596 1133.4 497.942L1133.4 497.942C1138.23 496.409 1143.06 494.876 1148.1 494.519C1152.43 494.205 1157.44 495.164 1159.67 498.899C1161.07 501.233 1161.04 504.109 1161.02 506.852L1161.01 507.087C1161.01 512.158 1161.26 517.3 1162.81 522.12C1164.36 526.94 1167.35 531.428 1171.75 534.026C1176.15 536.624 1181.73 537.018 1186.79 535.943C1191.85 534.868 1196.52 532.449 1200.93 529.762C1210.42 524.001 1219.51 516.243 1222.79 505.654C1223.58 503.092 1223.88 499.956 1221.99 498.066C1220.79 497.06 1219.31 496.452 1217.75 496.328C1213.56 495.692 1209.33 496.024 1205.09 496.357L1205.08 496.357C1202.87 496.53 1200.66 496.703 1198.45 496.74C1195.94 496.899 1193.42 496.527 1191.06 495.647C1189.89 495.198 1188.84 494.476 1188.01 493.542C1187.17 492.607 1186.57 491.486 1186.25 490.272C1185.63 487.128 1187.66 484.001 1190.31 482.147C1192.55 480.583 1195.17 479.828 1197.8 479.072C1198.29 478.931 1198.78 478.79 1199.27 478.644C1209.34 475.58 1219.07 470.053 1224.91 461.291C1226.43 459.016 1227.69 456.436 1227.7 453.703C1227.71 450.971 1226.18 448.086 1223.58 447.235C1220.8 446.339 1217.87 447.871 1215.45 449.502C1213.9 450.529 1212.37 451.621 1210.85 452.716L1210.85 452.716L1210.85 452.716L1210.85 452.716L1210.85 452.716L1210.85 452.716L1210.84 452.716L1210.84 452.716C1205.71 456.396 1200.53 460.1 1194.42 461.426C1192.48 461.847 1190.26 461.945 1188.71 460.709C1187.16 459.473 1186.76 457.045 1186.49 454.949C1186.08 451.706 1185.44 448.418 1183.81 445.605C1181.12 441.045 1172.54 437.399 1169.89 443.938C1169.35 445.322 1169.3 447.018 1169.26 448.678C1169.23 449.739 1169.21 450.784 1169.05 451.723C1168.39 455.692 1166.98 459.498 1164.89 462.94ZM1129.45 409.028C1129.14 407.478 1126.8 407.603 1125.5 408.499C1122.42 410.631 1120.76 415.648 1122.61 419.097C1124.41 422.52 1129.09 423.654 1132.67 424.524C1132.89 424.576 1133.1 424.627 1133.31 424.678C1139.98 426.347 1146.41 428.867 1152.44 432.176C1153.63 432.958 1154.97 433.472 1156.37 433.682C1157.78 433.762 1159.37 432.974 1159.65 431.594C1160.05 429.704 1158.07 428.271 1156.28 427.455C1149.2 424.156 1141.77 421.67 1134.13 420.047C1132.63 419.859 1131.2 419.316 1129.96 418.461C1127.86 416.723 1127.81 413.399 1128.94 410.927C1129.3 410.361 1129.48 409.697 1129.45 409.028ZM1192 444.719C1192.13 445.215 1192.24 445.727 1192.34 446.238C1192.65 447.709 1192.95 449.183 1193.88 450.327C1195.86 452.754 1199.8 452.486 1202.46 450.837C1204.24 449.735 1205.66 448.188 1207.08 446.638C1207.79 445.871 1208.5 445.102 1209.25 444.387C1211.97 441.798 1215.3 439.918 1218.92 438.913C1222.28 438.018 1226.38 438.018 1228.69 440.705C1229.12 441.2 1229.48 441.78 1229.85 442.358L1229.85 442.358C1230.64 443.599 1231.42 444.83 1232.79 445.184C1233.58 445.306 1234.39 445.148 1235.08 444.738C1235.77 444.328 1236.29 443.69 1236.56 442.936C1237.05 441.394 1236.93 439.722 1236.22 438.268C1235.65 436.943 1234.82 435.744 1233.78 434.74C1232.74 433.736 1231.51 432.947 1230.17 432.418C1226.32 430.931 1221.91 431.765 1218.21 433.565C1215.26 435.003 1212.63 437.001 1210 438.998C1209.34 439.501 1208.68 440.005 1208.01 440.499C1206.07 441.941 1203.77 443.375 1201.39 442.918C1199.67 442.592 1198.37 441.369 1197.06 440.138C1195.91 439.065 1194.77 437.985 1193.33 437.489C1191.63 436.907 1186.45 437.614 1187.9 440.338C1188.1 440.724 1188.67 440.936 1189.21 441.142C1189.62 441.293 1190.01 441.442 1190.25 441.655C1191.11 442.487 1191.72 443.55 1192 444.719ZM1205.06 488.168C1203.86 486.716 1204.57 484.387 1206.01 483.178C1208.44 481.13 1213.56 479.708 1216.79 478.812L1217.07 478.733L1217.26 478.681C1218.85 478.238 1220.08 478.921 1221.31 479.602C1222.67 480.356 1224.03 481.11 1225.87 480.338C1228.27 479.344 1229.71 476.719 1230.51 474.398C1231.3 472.078 1232.39 469.086 1234.84 469.086C1235.51 469.134 1236.15 469.369 1236.69 469.763C1237.23 470.157 1237.65 470.696 1237.91 471.317C1238.39 472.561 1238.64 473.886 1238.63 475.223C1239 479.292 1238.88 483.39 1238.29 487.433C1237.55 491.447 1235.81 495.415 1232.76 498.103C1232.31 498.586 1231.7 498.901 1231.04 498.999C1229.88 499.061 1229.01 497.888 1228.71 496.759C1228.56 495.606 1228.31 494.469 1227.94 493.364C1226.84 491.097 1223.89 490.631 1221.38 490.452L1208.99 489.556C1207.56 489.458 1205.96 489.27 1205.06 488.168ZM1037.99 413.631C1037.05 416.764 1036.87 420.072 1037.45 423.289C1037.76 424.89 1038.42 426.402 1039.39 427.713C1040.36 429.025 1041.61 430.103 1043.05 430.868C1043.98 431.314 1045.01 431.595 1046.02 431.874C1047.61 432.312 1049.19 432.745 1050.39 433.806C1052.37 435.544 1052.89 438.518 1052.77 441.197C1052.73 442.03 1052.64 442.865 1052.56 443.701C1052.37 445.553 1052.18 447.408 1052.49 449.26C1052.72 450.638 1053.25 451.951 1054.03 453.11C1054.81 454.269 1055.83 455.247 1057.02 455.979C1058.23 456.699 1059.6 457.114 1061 457.189C1062.41 457.264 1063.81 456.996 1065.09 456.409C1066.98 455.512 1068.41 453.942 1069.84 452.372C1071.26 450.806 1072.69 449.241 1074.57 448.346C1076.24 447.568 1078.12 447.388 1079.9 447.835C1081.68 448.282 1083.26 449.329 1084.36 450.801C1087.08 454.815 1085.31 460.168 1083.77 464.797L1083.7 465.009C1081.27 472.355 1079.84 480.561 1082.81 487.701C1082.97 488.083 1083.14 488.47 1083.31 488.859L1083.31 488.86C1084.22 490.896 1085.17 493.013 1084.49 495.074C1083.49 498.156 1079.6 499.051 1076.37 499.123C1068.82 499.266 1060.88 497.394 1055.41 492.198C1047.97 485.13 1046.71 473.573 1048.49 463.459C1048.57 462.975 1048.66 462.489 1048.76 462.003C1049.24 459.449 1049.73 456.87 1049.38 454.303C1048.97 451.267 1047.49 448.628 1046.02 446.01L1046 445.963L1045.97 445.919C1044.65 443.567 1043.29 441.143 1041.01 439.692C1039.52 438.711 1037.8 438.23 1036.07 437.748C1034.96 437.438 1033.85 437.127 1032.79 436.682C1030.78 435.803 1029.01 434.447 1027.63 432.732C1026.26 431.017 1025.32 428.993 1024.91 426.836C1024.56 424.562 1024.56 422.248 1024.91 419.974C1025.37 416.082 1026.16 412.235 1027.25 408.471C1028.18 404.801 1029.82 401.349 1032.07 398.312C1034.44 395.374 1037.92 393.161 1041.7 393.071C1042.53 392.994 1043.37 393.116 1044.15 393.428C1044.93 393.739 1045.62 394.231 1046.17 394.863C1047.61 396.825 1045.71 399.026 1044.12 400.865C1043.58 401.495 1043.07 402.082 1042.74 402.603C1040.6 406.012 1038.99 409.732 1037.99 413.631ZM1085.86 362.434C1093.88 360.078 1102.91 359.97 1110.26 363.975C1112.01 364.87 1113.52 366.165 1114.68 367.755C1115.6 369.097 1115.46 369.762 1115.22 370.912C1115.18 371.145 1115.12 371.397 1115.08 371.679C1114.64 374.241 1116.63 373.292 1118.03 372.449C1119.95 371.298 1121.77 369.995 1123.48 368.552C1125.15 367.137 1126.87 365.354 1126.87 363.177C1126.92 360.758 1124.86 358.734 1122.57 357.954C1120.46 357.234 1118.19 357.333 1115.96 357.429C1115.77 357.437 1115.59 357.445 1115.41 357.453C1110.92 357.638 1106.43 357.498 1101.97 357.032C1100.15 356.856 1098.34 356.62 1096.53 356.383C1092.14 355.81 1087.76 355.238 1083.32 355.536C1081.28 355.618 1079.27 356.058 1077.39 356.835C1075.49 357.619 1073.92 359.042 1072.96 360.857C1072.73 361.227 1072.6 361.648 1072.57 362.083C1072.54 362.518 1072.63 362.952 1072.81 363.348C1073.05 363.665 1073.36 363.926 1073.72 364.112C1074.08 364.297 1074.47 364.403 1074.87 364.423C1077.98 364.894 1081.07 363.926 1084.09 362.978C1084.68 362.792 1085.27 362.607 1085.86 362.434Z"
          fill="#3F134A"
          style="mix-blend-mode: multiply"
        />
      </g>
      <g opacity="0.5">
        <path
          d="M1126.04 584.177C1192.97 584.177 1247.22 529.921 1247.22 462.994C1247.22 396.067 1192.97 341.812 1126.04 341.812C1059.11 341.812 1004.86 396.067 1004.86 462.994C1004.86 529.921 1059.11 584.177 1126.04 584.177Z"
          fill="url(#paint2_radial_4300_36103)"
          style="mix-blend-mode: screen"
        />
      </g>
      <path
        opacity="0.1"
        fill-rule="evenodd"
        clip-rule="evenodd"
        d="M971.672 342.878C994.96 343.731 1026.01 349.57 1061.26 359.799L1060.7 361.72C1025.54 351.514 994.658 345.721 971.599 344.876C960.063 344.454 950.546 345.272 943.447 347.36C936.334 349.451 931.822 352.759 929.973 357.185L929.973 357.187C927.395 363.326 929.961 371.609 937.557 381.58C945.1 391.481 957.377 402.738 973.485 414.639C1005.69 438.433 1053.01 464.67 1107.83 487.685C1162.65 510.701 1214.53 526.115 1254.07 532.442C1273.85 535.606 1290.48 536.488 1302.83 534.938C1315.27 533.378 1322.97 529.408 1325.54 523.267L1325.54 523.265C1327.26 519.172 1326.71 514.13 1323.86 508.216C1321.01 502.306 1315.92 495.657 1308.81 488.479C1294.6 474.127 1272.51 457.826 1244.78 441.26L1245.8 439.543C1273.61 456.15 1295.86 472.552 1310.23 487.072C1317.42 494.329 1322.67 501.158 1325.66 507.347C1328.64 513.532 1329.42 519.211 1327.38 524.041C1324.36 531.261 1315.61 535.35 1303.08 536.922C1290.46 538.506 1273.61 537.595 1253.75 534.417C1214.01 528.058 1161.97 512.588 1107.06 489.529C1052.14 466.471 1004.66 440.161 972.296 416.248C956.121 404.296 943.674 392.909 935.966 382.792C928.311 372.743 925.098 363.631 928.128 356.413C930.311 351.188 935.505 347.61 942.882 345.441C950.274 343.268 960.033 342.451 971.672 342.878Z"
        fill="url(#paint3_linear_4300_36103)"
      />
      <path
        opacity="0.3"
        fill-rule="evenodd"
        clip-rule="evenodd"
        d="M981.862 346.876C1001.92 347.464 1028.73 352.291 1059.37 360.843L1058.83 362.77C1028.26 354.239 1001.63 349.457 981.804 348.876C971.884 348.585 963.727 349.348 957.651 351.181C951.562 353.019 947.729 355.875 946.143 359.649M981.862 346.876C971.839 346.583 963.441 347.345 957.073 349.267ZM957.073 349.267C950.717 351.185 946.215 354.314 944.299 358.875ZM944.299 358.875L944.299 358.875ZM944.299 358.875C941.543 365.441 944.631 373.753 951.779 382.904ZM951.779 382.904C958.987 392.131 970.576 402.546 985.606 413.504ZM985.606 413.504C1015.68 435.429 1059.71 459.662 1110.57 481.026ZM986.784 411.888C1016.7 433.698 1060.58 457.86 1111.34 479.183C1162.1 500.505 1210.09 514.921 1246.63 521.005C1264.91 524.048 1280.26 524.997 1291.64 523.709C1303.12 522.411 1310.15 518.893 1312.45 513.429C1313.9 509.98 1313.49 505.738 1311.17 500.741C1308.84 495.746 1304.66 490.118 1298.78 484.017C1287.02 471.821 1268.64 457.903 1245.38 443.563L1246.43 441.86C1269.75 456.241 1288.29 470.261 1300.22 482.629C1306.18 488.81 1310.53 494.621 1312.98 499.898C1315.43 505.173 1316.04 510.037 1314.3 514.202L1314.29 514.204C1311.53 520.771 1303.42 524.39 1291.87 525.696C1280.22 527.014 1264.66 526.034 1246.3 522.978C1209.57 516.862 1161.43 502.391 1110.57 481.026M986.784 411.888C971.82 400.978 960.399 390.69 953.355 381.673ZM953.355 381.673C946.253 372.581 943.85 365.111 946.143 359.65Z"
        fill="url(#paint4_linear_4300_36103)"
      />
      <path
        opacity="0.6"
        fill-rule="evenodd"
        clip-rule="evenodd"
        d="M993.596 351.037C1010.02 351.404 1032.06 355.179 1057.48 361.943L1056.96 363.876C1031.62 357.131 1009.75 353.398 993.551 353.037C985.445 352.856 978.817 353.521 973.896 355.038C968.965 356.558 965.913 358.878 964.652 361.889L964.651 361.89C963.682 364.198 963.737 366.965 964.882 370.203C966.03 373.448 968.251 377.098 971.501 381.086C978.001 389.06 988.479 398.217 1002.17 407.975C1029.54 427.483 1069.57 449.268 1115.78 468.693C1161.98 488.118 1205.56 501.453 1238.65 507.333C1255.2 510.274 1269.08 511.339 1279.33 510.393C1284.45 509.92 1288.61 508.948 1291.73 507.494C1294.85 506.044 1296.86 504.145 1297.83 501.837C1298.96 499.151 1298.7 495.839 1296.95 491.896C1295.2 487.953 1292 483.493 1287.46 478.625C1278.39 468.895 1264.1 457.711 1245.84 445.991L1246.92 444.307C1265.25 456.068 1279.69 467.356 1288.93 477.261C1293.54 482.211 1296.9 486.858 1298.78 491.085C1300.65 495.312 1301.09 499.232 1299.67 502.611L1299.67 502.611C1298.46 505.512 1295.99 507.717 1292.58 509.307C1289.17 510.894 1284.76 511.9 1279.51 512.384C1269.01 513.354 1254.93 512.256 1238.3 509.302C1205.02 503.389 1161.3 490.001 1115 470.537C1068.71 451.072 1028.53 429.22 1001.01 409.604C987.255 399.801 976.614 390.523 969.951 382.349C966.62 378.263 964.249 374.411 962.996 370.869C961.741 367.321 961.589 364.017 962.807 361.116L963.729 361.503L962.807 361.117C962.807 361.116 962.807 361.116 962.807 361.116C964.395 357.324 968.108 354.729 973.307 353.126C978.518 351.52 985.387 350.854 993.596 351.037Z"
        fill="url(#paint5_linear_4300_36103)"
      />
      <path
        fill-rule="evenodd"
        clip-rule="evenodd"
        d="M1000.63 353.171C1014.65 353.755 1033.57 357.191 1055.63 363.108L1055.11 365.039C1033.12 359.14 1014.36 355.745 1000.55 355.169C993.642 354.881 988.037 355.302 983.911 356.433C979.765 357.57 977.31 359.364 976.343 361.666C975.567 363.515 975.696 365.815 976.872 368.61C978.049 371.408 980.235 374.6 983.393 378.125C989.705 385.171 999.744 393.372 1012.78 402.205C1038.84 419.861 1076.71 439.922 1120.19 458.184C1163.68 476.446 1204.51 489.43 1235.37 495.668C1250.81 498.788 1263.69 500.209 1273.14 499.78C1277.87 499.565 1281.68 498.889 1284.5 497.769C1287.32 496.649 1289.05 495.13 1289.83 493.281C1290.67 491.271 1290.45 488.725 1288.97 485.596C1287.5 482.47 1284.84 478.894 1281.05 474.947C1273.48 467.06 1261.58 457.869 1246.32 448.05L1247.4 446.368C1262.72 456.222 1274.76 465.512 1282.49 473.562C1286.35 477.585 1289.18 481.341 1290.78 484.743C1292.38 488.141 1292.82 491.317 1291.68 494.055L1290.79 493.682L1291.68 494.055C1290.62 496.573 1288.35 498.392 1285.24 499.628C1282.13 500.862 1278.08 501.558 1273.23 501.778C1263.55 502.218 1250.48 500.762 1234.97 497.628C1203.95 491.357 1162.99 478.326 1119.42 460.028C1075.85 441.73 1037.86 421.611 1011.66 403.861C998.567 394.991 988.374 386.682 981.903 379.46C978.669 375.851 976.325 372.469 975.029 369.386C973.731 366.3 973.442 363.41 974.498 360.892L974.499 360.891C975.816 357.759 978.991 355.709 983.382 354.505C987.793 353.295 993.632 352.879 1000.63 353.171Z"
        fill="url(#paint6_linear_4300_36103)"
      />
    </g>
  </g>
  <defs>
    <filter
      id="filter0_f_4300_36103"
      x="847"
      y="24"
      width="784"
      height="784"
      filterUnits="userSpaceOnUse"
      color-interpolation-filters="sRGB"
    >
      <feFlood flood-opacity="0" result="BackgroundImageFix" />
      <feBlend
        mode="normal"
        in="SourceGraphic"
        in2="BackgroundImageFix"
        result="shape"
      />
      <feGaussianBlur
        stdDeviation="128"
        result="effect1_foregroundBlur_4300_36103"
      />
    </filter>
    <radialGradient
      id="paint0_angular_4300_36103"
      cx="0"
      cy="0"
      r="1"
      gradientUnits="userSpaceOnUse"
      gradientTransform="translate(1239 416) rotate(90) scale(136)"
    >
      <stop stop-color="#DD1BE1" />
      <stop offset="0.635417" stop-color="#552C88" />
      <stop offset="1" stop-color="#302A82" />
    </radialGradient>
    <radialGradient
      id="paint1_radial_4300_36103"
      cx="0"
      cy="0"
      r="1"
      gradientUnits="userSpaceOnUse"
      gradientTransform="translate(1198.59 361.867) rotate(11.13) scale(222.486 222.486)"
    >
      <stop stop-color="#FC49EF" />
      <stop offset="0.09" stop-color="#F447E9" stop-opacity="0.96" />
      <stop offset="0.23" stop-color="#DF40DB" stop-opacity="0.86" />
      <stop offset="0.42" stop-color="#BC35C2" stop-opacity="0.68" />
      <stop offset="0.64" stop-color="#8C26A1" stop-opacity="0.45" />
      <stop offset="0.89" stop-color="#501277" stop-opacity="0.15" />
      <stop offset="1" stop-color="#320962" stop-opacity="0" />
    </radialGradient>
    <radialGradient
      id="paint2_radial_4300_36103"
      cx="0"
      cy="0"
      r="1"
      gradientUnits="userSpaceOnUse"
      gradientTransform="translate(1162.97 354.228) rotate(16.2602) scale(121.38 53.0186)"
    >
      <stop stop-color="white" />
      <stop offset="0.12" stop-color="#FFE4FD" stop-opacity="0.85" />
      <stop offset="0.36" stop-color="#FEAEF8" stop-opacity="0.55" />
      <stop offset="0.58" stop-color="#FD82F4" stop-opacity="0.32" />
      <stop offset="0.77" stop-color="#FC63F1" stop-opacity="0.14" />
      <stop offset="0.91" stop-color="#FC50F0" stop-opacity="0.04" />
      <stop offset="1" stop-color="#FC49EF" stop-opacity="0" />
    </radialGradient>
    <linearGradient
      id="paint3_linear_4300_36103"
      x1="926.524"
      y1="359.33"
      x2="1323.33"
      y2="527.973"
      gradientUnits="userSpaceOnUse"
    >
      <stop stop-color="#26FFEF" />
      <stop offset="0.34" stop-color="#74BDEF" />
      <stop offset="0.8" stop-color="#D56AEF" />
      <stop offset="1" stop-color="#FC49EF" />
    </linearGradient>
    <linearGradient
      id="paint4_linear_4300_36103"
      x1="944.778"
      y1="361.952"
      x2="1312.44"
      y2="515.144"
      gradientUnits="userSpaceOnUse"
    >
      <stop stop-color="#26FFEF" />
      <stop offset="0.34" stop-color="#74BDEF" />
      <stop offset="0.8" stop-color="#D56AEF" />
      <stop offset="1" stop-color="#FC49EF" />
    </linearGradient>
    <linearGradient
      id="paint5_linear_4300_36103"
      x1="962.625"
      y1="363.126"
      x2="1299.63"
      y2="504.452"
      gradientUnits="userSpaceOnUse"
    >
      <stop stop-color="#26FFEF" />
      <stop offset="0.34" stop-color="#74BDEF" />
      <stop offset="0.8" stop-color="#D56AEF" />
      <stop offset="1" stop-color="#FC49EF" />
    </linearGradient>
    <linearGradient
      id="paint6_linear_4300_36103"
      x1="973.948"
      y1="363.127"
      x2="1289.09"
      y2="496.456"
      gradientUnits="userSpaceOnUse"
    >
      <stop stop-color="#26FFEF" />
      <stop offset="0.34" stop-color="#74BDEF" />
      <stop offset="0.8" stop-color="#D56AEF" />
      <stop offset="1" stop-color="#FC49EF" />
    </linearGradient>
  </defs>
</svg>
