<svg width="1556" height="438" viewBox="0 0 1556 438" fill="none" xmlns="http://www.w3.org/2000/svg">
<path d="M380.93 266V186.277H460.653V194.581H390.895V221.156H457.331V229.46H390.895V257.696H460.653V266H380.93ZM505.165 192.92V266H495.2V186.277H511.809L558.262 256.035L604.715 186.277H620.598V266H610.632V194.01L563.297 266H553.227L505.165 192.92ZM661.788 266V186.277H728.276C733.259 186.277 737.272 186.692 740.317 187.522C743.362 188.318 745.698 189.512 747.324 191.104C748.985 192.661 750.092 194.616 750.646 196.969C751.2 199.322 751.476 202.021 751.476 205.066C751.476 207.28 751.286 209.235 750.906 210.931C750.525 212.626 750.023 214.097 749.4 215.343C748.778 216.588 748.068 217.644 747.272 218.509C746.476 219.339 745.663 220.031 744.833 220.585C742.895 221.9 740.681 222.644 738.189 222.817C741.303 222.99 744.072 223.751 746.494 225.1C747.532 225.689 748.535 226.433 749.504 227.332C750.508 228.197 751.39 229.287 752.151 230.602C752.947 231.882 753.587 233.405 754.072 235.17C754.556 236.9 754.798 238.907 754.798 241.19C754.798 243.958 754.66 246.502 754.383 248.82C754.141 251.104 753.622 253.163 752.826 254.997C752.03 256.83 750.888 258.439 749.4 259.824C747.912 261.208 745.923 262.367 743.432 263.301C740.975 264.201 737.947 264.875 734.348 265.325C730.784 265.775 726.511 266 721.528 266H661.788ZM718.207 257.696C722.082 257.696 725.438 257.644 728.276 257.54C731.113 257.401 733.518 257.142 735.49 256.761C737.463 256.346 739.054 255.775 740.265 255.048C741.476 254.287 742.411 253.301 743.068 252.09C743.76 250.844 744.227 249.339 744.47 247.574C744.712 245.81 744.833 243.682 744.833 241.19C744.833 239.253 744.712 237.574 744.47 236.156C744.227 234.702 743.76 233.491 743.068 232.522C742.411 231.519 741.476 230.723 740.265 230.135C739.054 229.512 737.463 229.028 735.49 228.682C733.518 228.336 731.113 228.111 728.276 228.007C725.438 227.869 722.082 227.799 718.207 227.799H671.753V257.696H718.207ZM718.207 219.495C721.598 219.495 724.521 219.426 726.978 219.287C729.435 219.149 731.528 218.889 733.259 218.509C734.989 218.128 736.39 217.609 737.463 216.952C738.535 216.26 739.366 215.377 739.954 214.304C740.577 213.232 740.992 211.952 741.2 210.464C741.407 208.941 741.511 207.142 741.511 205.066C741.511 202.851 741.269 201.052 740.784 199.668C740.3 198.284 739.435 197.228 738.189 196.502C736.944 195.74 735.248 195.239 733.103 194.997C730.992 194.72 728.276 194.581 724.954 194.581H671.753V219.495H718.207ZM885.729 186.277V226.138C885.729 230.844 885.66 235.135 885.521 239.01C885.418 242.886 885.02 246.363 884.328 249.443C883.67 252.522 882.615 255.204 881.162 257.488C879.708 259.772 877.632 261.675 874.933 263.197C872.234 264.685 868.791 265.792 864.605 266.519C860.452 267.28 855.331 267.661 849.241 267.661H825.885C819.795 267.661 814.656 267.28 810.47 266.519C806.317 265.792 802.892 264.685 800.193 263.197C797.494 261.675 795.4 259.772 793.912 257.488C792.459 255.204 791.387 252.522 790.694 249.443C790.037 246.363 789.656 242.886 789.553 239.01C789.449 235.135 789.397 230.844 789.397 226.138V186.277H799.362V226.138C799.362 231.121 799.397 235.412 799.466 239.01C799.57 242.574 799.864 245.585 800.348 248.042C800.833 250.498 801.594 252.471 802.632 253.958C803.705 255.446 805.227 256.588 807.2 257.384C809.172 258.18 811.663 258.716 814.674 258.993C817.719 259.235 821.456 259.356 825.885 259.356H849.241C853.636 259.356 857.355 259.235 860.4 258.993C863.445 258.716 865.937 258.18 867.874 257.384C869.847 256.588 871.369 255.446 872.442 253.958C873.515 252.471 874.293 250.498 874.778 248.042C875.297 245.585 875.591 242.574 875.66 239.01C875.729 235.412 875.764 231.121 875.764 226.138L875.712 186.277H885.729ZM1006.64 211.19C1006.64 207.038 1006.19 203.751 1005.29 201.329C1004.39 198.907 1002.91 197.073 1000.83 195.827C998.753 194.581 996.02 193.785 992.629 193.439C989.272 193.093 985.103 192.92 980.12 192.92H956.816C952.387 192.92 948.65 193.059 945.605 193.336C942.594 193.578 940.103 194.097 938.131 194.893C936.158 195.689 934.636 196.83 933.563 198.318C932.49 199.806 931.712 201.779 931.227 204.235C930.743 206.692 930.466 209.72 930.397 213.318C930.328 216.882 930.293 221.156 930.293 226.138C930.293 231.121 930.328 235.412 930.397 239.01C930.501 242.574 930.795 245.585 931.279 248.042C931.764 250.498 932.525 252.471 933.563 253.958C934.636 255.446 936.158 256.588 938.131 257.384C940.103 258.18 942.594 258.716 945.605 258.993C948.65 259.235 952.387 259.356 956.816 259.356H980.12C983.996 259.356 987.335 259.253 990.137 259.045C992.94 258.837 995.328 258.457 997.3 257.903C999.272 257.349 1000.86 256.588 1002.08 255.619C1003.29 254.651 1004.22 253.439 1004.88 251.986C1005.57 250.498 1006.04 248.734 1006.28 246.692C1006.52 244.616 1006.64 242.194 1006.64 239.426H1016.61C1016.61 242.747 1016.4 245.758 1015.99 248.457C1015.57 251.121 1014.83 253.509 1013.75 255.619C1012.72 257.696 1011.31 259.495 1009.55 261.017C1007.78 262.54 1005.55 263.803 1002.85 264.806C1000.15 265.775 996.937 266.484 993.2 266.934C989.463 267.419 985.103 267.661 980.12 267.661H956.816C950.726 267.661 945.587 267.28 941.4 266.519C937.248 265.792 933.823 264.685 931.124 263.197C928.425 261.675 926.331 259.772 924.843 257.488C923.39 255.204 922.317 252.522 921.625 249.443C920.968 246.363 920.587 242.886 920.483 239.01C920.38 235.135 920.328 230.844 920.328 226.138C920.328 221.433 920.38 217.142 920.483 213.266C920.587 209.391 920.968 205.913 921.625 202.834C922.317 199.754 923.39 197.073 924.843 194.789C926.331 192.505 928.425 190.619 931.124 189.131C933.823 187.609 937.248 186.484 941.4 185.758C945.587 184.997 950.726 184.616 956.816 184.616H980.12C985.103 184.616 989.463 184.858 993.2 185.343C996.937 185.792 1000.15 186.502 1002.85 187.471C1005.55 188.405 1007.78 189.599 1009.55 191.052C1011.31 192.505 1012.72 194.218 1013.75 196.19C1014.83 198.163 1015.57 200.394 1015.99 202.886C1016.4 205.377 1016.61 208.145 1016.61 211.19H1006.64ZM1129.27 186.277H1144.22L1087.75 225.308L1145.88 266H1130.93L1077.78 229.46H1064.49V266H1054.53V186.277H1064.49V221.156H1077.78L1129.27 186.277ZM1180.42 266V186.277H1260.15V194.581H1190.39V221.156H1256.83V229.46H1190.39V257.696H1260.15V266H1180.42ZM1381.06 186.277V194.581H1341.2V266H1331.23V194.581H1291.37V186.277H1381.06Z" fill="white"/>
<path d="M301.103 191.366C311.393 201.323 337.481 227.279 332.967 234.183C327.325 242.813 298.116 228.208 248.993 194.353" stroke="white" stroke-width="11.2662"/>
<path d="M194.144 285.973L175.48 153.188H308.548L289.578 285.973H194.144Z" stroke="white" stroke-width="11.2662"/>
<circle cx="242.737" cy="188.623" r="14.0277" fill="white"/>
</svg>
